<svg width="24" height="24" fill="none" xmlns="http://www.w3.org/2000/svg"><path fill-rule="evenodd" clip-rule="evenodd" d="M12 22.113c5.523 0 10-4.502 10-10.056C22 6.503 17.523 2 12 2S2 6.503 2 12.057s4.477 10.056 10 10.056zm-4.547-9.842l2.14.708a.233.233 0 00.108-.006v-.001c.494-.317 4.896-3.14 5.15-3.236.04-.012.07.002.062.03-.101.363-3.932 3.822-3.932 3.822s-.037.043-.03.078a.094.094 0 00.04.066c.486.33 2.686 1.832 3.322 2.389a.594.594 0 00.433.17c.324-.013.415-.375.415-.375s1.512-6.184 1.563-7.013l.006-.083c.003-.039.006-.072.006-.106a.704.704 0 00-.018-.192.206.206 0 00-.138-.152c-.138-.053-.373.027-.373.027s-8.3 3.03-8.774 3.367c-.102.072-.137.114-.153.163-.083.239.173.344.173.344z" fill="#fff"/></svg>