<svg width="20" height="20" viewBox="0 0 20 20" fill="none" xmlns="http://www.w3.org/2000/svg">
<path d="M6.37835 15.3648C6.75162 15.3648 7.1096 15.2165 7.37354 14.9526C7.63748 14.6886 7.78576 14.3306 7.78576 13.9574C7.78576 13.5841 7.63748 13.2261 7.37354 12.9622C7.1096 12.6982 6.75162 12.55 6.37835 12.55C6.00509 12.55 5.64711 12.6982 5.38317 12.9622C5.11923 13.2261 4.97095 13.5841 4.97095 13.9574C4.97095 14.3306 5.11923 14.6886 5.38317 14.9526C5.64711 15.2165 6.00509 15.3648 6.37835 15.3648ZM14.4709 15.3648C14.8442 15.3648 15.2022 15.2165 15.4661 14.9526C15.7301 14.6886 15.8784 14.3306 15.8784 13.9574C15.8784 13.5841 15.7301 13.2261 15.4661 12.9622C15.2022 12.6982 14.8442 12.55 14.4709 12.55C14.0977 12.55 13.7397 12.6982 13.4758 12.9622C13.2118 13.2261 13.0635 13.5841 13.0635 13.9574C13.0635 14.3306 13.2118 14.6886 13.4758 14.9526C13.7397 15.2165 14.0977 15.3648 14.4709 15.3648Z" stroke="#161718" stroke-width="1.5"/>
<path d="M5.07273 13.55H3V5H13.0182V13.55M13.0182 13.55H7.83636M13.0182 13.55V7.49375H15.9791L18.2 10.5219V13.55H16.062" stroke="#161718" stroke-width="1.5" stroke-linecap="round"/>
</svg>
